<?xml version="1.0" encoding="UTF-8" standalone="no"?>
<!-- Created with Inkscape (http://www.inkscape.org/) -->

<svg
   width="176.69183mm"
   height="49.338108mm"
   viewBox="0 0 176.69183 49.338108"
   version="1.1"
   id="svg1"
   inkscape:version="1.4.3 (0d15f75, 2025-12-25)"
   sodipodi:docname="rtc.svg"
   xmlns:inkscape="http://www.inkscape.org/namespaces/inkscape"
   xmlns:sodipodi="http://sodipodi.sourceforge.net/DTD/sodipodi-0.dtd"
   xmlns="http://www.w3.org/2000/svg"
   xmlns:svg="http://www.w3.org/2000/svg">
  <sodipodi:namedview
     id="namedview1"
     pagecolor="#ffffff"
     bordercolor="#000000"
     borderopacity="0.25"
     inkscape:showpageshadow="2"
     inkscape:pageopacity="0.0"
     inkscape:pagecheckerboard="0"
     inkscape:deskcolor="#d1d1d1"
     inkscape:document-units="mm"
     inkscape:zoom="0.62626964"
     inkscape:cx="115.76483"
     inkscape:cy="95.805378"
     inkscape:window-width="1720"
     inkscape:window-height="650"
     inkscape:window-x="-6"
     inkscape:window-y="-6"
     inkscape:window-maximized="1"
     inkscape:current-layer="layer1" />
  <defs
     id="defs1">
    <rect
       x="102.74603"
       y="267.59131"
       width="225.93295"
       height="36.46117"
       id="rect3" />
    <rect
       x="110.64957"
       y="496.79398"
       width="41.775852"
       height="40.646778"
       id="rect2" />
    <rect
       x="110.64957"
       y="496.79398"
       width="41.775852"
       height="40.646778"
       id="rect2-8" />
    <rect
       x="102.74603"
       y="267.59131"
       width="158.07082"
       height="37.259548"
       id="rect3-8" />
    <rect
       x="102.74603"
       y="267.59131"
       width="225.93295"
       height="36.46117"
       id="rect3-1" />
    <rect
       x="102.74603"
       y="267.59131"
       width="225.93295"
       height="36.46117"
       id="rect3-1-6" />
    <g
       id="g6905">
      <g
         id="g5126">
        <path
           d="m 2.9375,-3.71875 h 1.671875 c 0.125,0 0.484375,0 0.484375,-0.34375 0,-0.234375 -0.203125,-0.234375 -0.40625,-0.234375 H 1.90625 c -0.203125,0 -0.59375,0 -1.03125,0.46875 -0.328125,0.359375 -0.609375,0.84375 -0.609375,0.890625 0,0.015625 0,0.109375 0.125,0.109375 0.078125,0 0.09375,-0.046875 0.15625,-0.125 C 1.03125,-3.71875 1.609375,-3.71875 1.8125,-3.71875 h 0.828125 l -0.96875,3.203125 C 1.625,-0.40625 1.5625,-0.1875 1.5625,-0.15625 c 0,0.109375 0.078125,0.28125 0.296875,0.28125 0.328125,0 0.375,-0.28125 0.40625,-0.4375 z m 0,0"
           id="path4263" />
      </g>
    </g>
  </defs>
  <g
     inkscape:label="Layer 1"
     inkscape:groupmode="layer"
     id="layer1"
     transform="translate(-9.7248123,-70.861369)">
    <rect
       style="opacity:0.996479;fill:#f38baf;fill-opacity:1;stroke:#000000;stroke-width:0.5;stroke-dasharray:none;stroke-opacity:1"
       id="rect1"
       width="26.323544"
       height="26.323544"
       x="19.763636"
       y="82.054955"
       ry="0" />
    <rect
       style="opacity:0.996479;fill:#f38baf;fill-opacity:1;stroke:#000000;stroke-width:0.5;stroke-dasharray:none;stroke-opacity:1"
       id="rect1-4"
       width="26.323544"
       height="26.323544"
       x="46.168152"
       y="82.054955"
       ry="0" />
    <rect
       style="opacity:0.996479;fill:#fab387;fill-opacity:1;stroke:#000000;stroke-width:0.5;stroke-dasharray:none;stroke-opacity:1"
       id="rect1-3"
       width="26.323544"
       height="26.323544"
       x="72.444298"
       y="82.054955"
       ry="0" />
    <rect
       style="opacity:0.996479;fill:#fab387;fill-opacity:1;stroke:#000000;stroke-width:0.5;stroke-dasharray:none;stroke-opacity:1"
       id="rect1-4-3"
       width="26.323544"
       height="26.323544"
       x="98.848816"
       y="82.054955"
       ry="0" />
    <rect
       style="opacity:0.996479;fill:#fab387;fill-opacity:1;stroke:#000000;stroke-width:0.5;stroke-dasharray:none;stroke-opacity:1"
       id="rect1-3-6"
       width="26.323544"
       height="26.323544"
       x="125.22929"
       y="82.054955"
       ry="0" />
    <rect
       style="opacity:0.996479;fill:#fab387;fill-opacity:1;stroke:#000000;stroke-width:0.5;stroke-dasharray:none;stroke-opacity:1"
       id="rect1-4-3-7"
       width="26.323544"
       height="26.323544"
       x="151.6338"
       y="82.054955"
       ry="0" />
    <text
       xml:space="preserve"
       transform="matrix(0.26458333,0,0,0.26458333,-0.57849028,-40.792377)"
       id="text1"
       style="font-style:normal;font-variant:normal;font-weight:normal;font-stretch:normal;font-size:24px;line-height:37.7953px;font-family:'Times New Roman';-inkscape-font-specification:'Times New Roman, Normal';font-variant-ligatures:normal;font-variant-caps:normal;font-variant-numeric:normal;font-variant-east-asian:normal;text-align:end;direction:rtl;white-space:pre;shape-inside:url(#rect2);display:inline;opacity:0.996479;fill:#000000;fill-opacity:1;stroke:none;stroke-width:1.88976;stroke-dasharray:none;stroke-opacity:1"><tspan
         x="110.65039"
         y="521.99547"
         id="tspan11">1.0</tspan></text>
    <text
       xml:space="preserve"
       transform="matrix(0.26458333,0,0,0.26458333,25.826026,-40.792377)"
       id="text1-1"
       style="font-style:normal;font-variant:normal;font-weight:normal;font-stretch:normal;font-size:24px;line-height:37.7953px;font-family:'Times New Roman';-inkscape-font-specification:'Times New Roman, Normal';font-variant-ligatures:normal;font-variant-caps:normal;font-variant-numeric:normal;font-variant-east-asian:normal;text-align:end;direction:rtl;white-space:pre;shape-inside:url(#rect2-8);display:inline;opacity:0.996479;fill:#000000;fill-opacity:1;stroke:none;stroke-width:1.88976;stroke-dasharray:none;stroke-opacity:1"><tspan
         x="110.65039"
         y="521.99547"
         id="tspan12">1.0</tspan></text>
    <text
       xml:space="preserve"
       transform="matrix(0.26458333,0,0,0.26458333,2.3023827,-1.560402)"
       id="text2"
       style="font-style:normal;font-variant:normal;font-weight:normal;font-stretch:normal;font-size:21.3333336px;line-height:37.7953px;font-family:'Times New Roman';-inkscape-font-specification:'Times New Roman, Normal';font-variant-ligatures:normal;font-variant-caps:normal;font-variant-numeric:normal;font-variant-east-asian:normal;text-align:end;direction:rtl;white-space:pre;shape-inside:url(#rect3);display:inline;opacity:0.996479;fill:#000000;fill-opacity:1;stroke:none;stroke-width:1.88976;stroke-dasharray:none;stroke-opacity:1"><tspan
         x="102.74609"
         y="292.09202"
         id="tspan13">Clean Tokens</tspan></text>
    <text
       xml:space="preserve"
       transform="matrix(0.26458333,0,0,0.26458333,5.887527,42.369171)"
       id="text2-2"
       style="font-style:normal;font-variant:normal;font-weight:normal;font-stretch:normal;font-size:21.3333336px;line-height:37.7953px;font-family:'Times New Roman';-inkscape-font-specification:'Times New Roman, Normal';font-variant-ligatures:normal;font-variant-caps:normal;font-variant-numeric:normal;font-variant-east-asian:normal;text-align:end;direction:rtl;white-space:pre;shape-inside:url(#rect3-1);display:inline;opacity:0.996479;fill:#000000;fill-opacity:1;stroke:none;stroke-width:1.88976;stroke-dasharray:none;stroke-opacity:1"><tspan
         x="102.74609"
         y="292.09202"
         id="tspan14">No Loss</tspan></text>
    <text
       xml:space="preserve"
       transform="matrix(0.26458333,0,0,0.26458333,74.099883,41.361045)"
       id="text2-2-0"
       style="font-style:normal;font-variant:normal;font-weight:normal;font-stretch:normal;font-size:21.3333336px;line-height:37.7953px;font-family:'Times New Roman';-inkscape-font-specification:'Times New Roman, Normal';font-variant-ligatures:normal;font-variant-caps:normal;font-variant-numeric:normal;font-variant-east-asian:normal;text-align:end;direction:rtl;white-space:pre;shape-inside:url(#rect3-1-6);display:inline;opacity:0.996479;fill:#000000;fill-opacity:1;stroke:none;stroke-width:1.88976;stroke-dasharray:none;stroke-opacity:1"><tspan
         x="102.74609"
         y="292.09202"
         id="tspan15">Flow Mathcing Loss</tspan></text>
    <text
       xml:space="preserve"
       transform="matrix(0.26458333,0,0,0.26458333,83.557187,-2.1975724)"
       id="text2-5"
       style="font-style:normal;font-variant:normal;font-weight:normal;font-stretch:normal;font-size:21.3333336px;line-height:37.7953px;font-family:'Times New Roman';-inkscape-font-specification:'Times New Roman, Normal';font-variant-ligatures:normal;font-variant-caps:normal;font-variant-numeric:normal;font-variant-east-asian:normal;text-align:end;direction:rtl;white-space:pre;shape-inside:url(#rect3-8);display:inline;opacity:0.996479;fill:#000000;fill-opacity:1;stroke:none;stroke-width:1.88976;stroke-dasharray:none;stroke-opacity:1"><tspan
         x="102.74609"
         y="292.09202"
         id="tspan16">Noisy Tokens</tspan></text>
    <path
       style="opacity:0.996479;fill:none;fill-opacity:1;stroke:#000000;stroke-width:0.350885;stroke-dasharray:none;stroke-opacity:1"
       d="M 27.306704,81.689601 V 76.995013 H 49.176189 64.45487 v 4.841294"
       id="path3"
       sodipodi:nodetypes="ccccc" />
    <path
       style="opacity:0.996479;fill:none;fill-opacity:1;stroke:#000000;stroke-width:0.350885;stroke-dasharray:none;stroke-opacity:1"
       d="m 27.306704,108.59302 v 4.69459 H 49.176189 64.45487 v -4.84129"
       id="path3-9"
       sodipodi:nodetypes="ccccc" />
    <path
       style="opacity:0.996479;fill:none;fill-opacity:1;stroke:#000000;stroke-width:0.350885;stroke-dasharray:none;stroke-opacity:1"
       d="m 78.403152,81.68889 v -4.694588 h 21.869488 l 70.08422,0.02563 0.0123,4.815666"
       id="path3-6"
       sodipodi:nodetypes="ccccc" />
    <path
       style="opacity:0.996479;fill:none;fill-opacity:1;stroke:#000000;stroke-width:0.350885;stroke-dasharray:none;stroke-opacity:1"
       d="m 78.403151,108.59323 v 4.69459 h 21.869489 l 70.08422,-0.0256 0.0123,-4.81567"
       id="path3-6-4"
       sodipodi:nodetypes="ccccc" />
    <text
       xml:space="preserve"
       style="font-style:normal;font-variant:normal;font-weight:normal;font-stretch:normal;font-size:7.05556px;font-family:'Times New Roman';-inkscape-font-specification:'Times New Roman, Normal';font-variant-ligatures:normal;font-variant-caps:normal;font-variant-numeric:normal;font-variant-east-asian:normal;writing-mode:lr-tb;direction:ltr;white-space:pre;inline-size:11.836;display:inline;fill:#000000;fill-opacity:1;fill-rule:nonzero;stroke:none;stroke-width:0.264999;stroke-dasharray:0.529997, 0.264999;stroke-dashoffset:0;stroke-opacity:1"
       x="109.50151"
       y="8.598958"
       id="text13"
       transform="translate(-100.27668,87.199674)"><tspan
         x="109.50151"
         y="8.598958"
         id="tspan18"><tspan
           style="stroke-width:0.265"
           id="tspan17">...</tspan></tspan></text>
    <text
       xml:space="preserve"
       style="font-style:normal;font-variant:normal;font-weight:normal;font-stretch:normal;font-size:7.05556px;font-family:'Times New Roman';-inkscape-font-specification:'Times New Roman, Normal';font-variant-ligatures:normal;font-variant-caps:normal;font-variant-numeric:normal;font-variant-east-asian:normal;writing-mode:lr-tb;direction:ltr;white-space:pre;inline-size:11.836;display:inline;fill:#000000;fill-opacity:1;fill-rule:nonzero;stroke:none;stroke-width:0.264999;stroke-dasharray:0.529997, 0.264999;stroke-dashoffset:0;stroke-opacity:1"
       x="109.50151"
       y="8.598958"
       id="text13-8"
       transform="translate(72.122567,87.199674)"><tspan
         x="109.50151"
         y="8.598958"
         id="tspan20"><tspan
           style="stroke-width:0.265"
           id="tspan19">...</tspan></tspan></text>
    <g
       inkscape:label=""
       transform="matrix(3.091478,0,0,3.091478,82.973279,92.805464)"
       id="g1">
      <g
         fill="#000000"
         fill-opacity="1"
         id="g2"
         transform="matrix(0.352778,0,0,0.352778,-0.796793,-0.700308)">
        <g
           id="use1"
           transform="translate(1.993,6.2820001)">
          <path
             d="m 2.9375,-3.71875 h 1.671875 c 0.125,0 0.484375,0 0.484375,-0.34375 0,-0.234375 -0.203125,-0.234375 -0.40625,-0.234375 H 1.90625 c -0.203125,0 -0.59375,0 -1.03125,0.46875 -0.328125,0.359375 -0.609375,0.84375 -0.609375,0.890625 0,0.015625 0,0.109375 0.125,0.109375 0.078125,0 0.09375,-0.046875 0.15625,-0.125 C 1.03125,-3.71875 1.609375,-3.71875 1.8125,-3.71875 h 0.828125 l -0.96875,3.203125 C 1.625,-0.40625 1.5625,-0.1875 1.5625,-0.15625 c 0,0.109375 0.078125,0.28125 0.296875,0.28125 0.328125,0 0.375,-0.28125 0.40625,-0.4375 z m 0,0"
             id="path2" />
        </g>
      </g>
    </g>
    <g
       inkscape:label=""
       transform="matrix(3.091478,0,0,3.091478,109.3778,92.805464)"
       id="g1-8">
      <g
         fill="#000000"
         fill-opacity="1"
         id="g2-2"
         transform="matrix(0.352778,0,0,0.352778,-0.796793,-0.700308)">
        <g
           id="use1-4"
           transform="translate(1.993,6.2820001)">
          <path
             d="m 2.9375,-3.71875 h 1.671875 c 0.125,0 0.484375,0 0.484375,-0.34375 0,-0.234375 -0.203125,-0.234375 -0.40625,-0.234375 H 1.90625 c -0.203125,0 -0.59375,0 -1.03125,0.46875 -0.328125,0.359375 -0.609375,0.84375 -0.609375,0.890625 0,0.015625 0,0.109375 0.125,0.109375 0.078125,0 0.09375,-0.046875 0.15625,-0.125 C 1.03125,-3.71875 1.609375,-3.71875 1.8125,-3.71875 h 0.828125 l -0.96875,3.203125 C 1.625,-0.40625 1.5625,-0.1875 1.5625,-0.15625 c 0,0.109375 0.078125,0.28125 0.296875,0.28125 0.328125,0 0.375,-0.28125 0.40625,-0.4375 z m 0,0"
             id="path2-5" />
        </g>
      </g>
    </g>
    <g
       inkscape:label=""
       transform="matrix(3.091478,0,0,3.091478,135.75827,92.805464)"
       id="g1-8-1">
      <g
         fill="#000000"
         fill-opacity="1"
         id="g2-2-5"
         transform="matrix(0.352778,0,0,0.352778,-0.796793,-0.700308)">
        <g
           id="use1-4-2"
           transform="translate(1.993,6.2820001)">
          <path
             d="m 2.9375,-3.71875 h 1.671875 c 0.125,0 0.484375,0 0.484375,-0.34375 0,-0.234375 -0.203125,-0.234375 -0.40625,-0.234375 H 1.90625 c -0.203125,0 -0.59375,0 -1.03125,0.46875 -0.328125,0.359375 -0.609375,0.84375 -0.609375,0.890625 0,0.015625 0,0.109375 0.125,0.109375 0.078125,0 0.09375,-0.046875 0.15625,-0.125 C 1.03125,-3.71875 1.609375,-3.71875 1.8125,-3.71875 h 0.828125 l -0.96875,3.203125 C 1.625,-0.40625 1.5625,-0.1875 1.5625,-0.15625 c 0,0.109375 0.078125,0.28125 0.296875,0.28125 0.328125,0 0.375,-0.28125 0.40625,-0.4375 z m 0,0"
             id="path2-5-7" />
        </g>
      </g>
    </g>
    <g
       inkscape:label=""
       transform="matrix(3.091478,0,0,3.091478,162.16279,92.805464)"
       id="g1-8-1-3">
      <g
         fill="#000000"
         fill-opacity="1"
         id="g2-2-5-2"
         transform="matrix(0.352778,0,0,0.352778,-0.796793,-0.700308)">
        <g
           id="use1-4-2-2"
           transform="translate(1.993,6.2820001)">
          <path
             d="m 2.9375,-3.71875 h 1.671875 c 0.125,0 0.484375,0 0.484375,-0.34375 0,-0.234375 -0.203125,-0.234375 -0.40625,-0.234375 H 1.90625 c -0.203125,0 -0.59375,0 -1.03125,0.46875 -0.328125,0.359375 -0.609375,0.84375 -0.609375,0.890625 0,0.015625 0,0.109375 0.125,0.109375 0.078125,0 0.09375,-0.046875 0.15625,-0.125 C 1.03125,-3.71875 1.609375,-3.71875 1.8125,-3.71875 h 0.828125 l -0.96875,3.203125 C 1.625,-0.40625 1.5625,-0.1875 1.5625,-0.15625 c 0,0.109375 0.078125,0.28125 0.296875,0.28125 0.328125,0 0.375,-0.28125 0.40625,-0.4375 z m 0,0"
             id="path2-5-7-1" />
        </g>
      </g>
    </g>
  </g>
</svg>
